<?xml version="1.0" encoding="utf-8"?>
<!-- Generator: Adobe Illustrator 16.0.3, SVG Export Plug-In . SVG Version: 6.00 Build 0)  -->
<!DOCTYPE svg PUBLIC "-//W3C//DTD SVG 1.1//EN" "http://www.w3.org/Graphics/SVG/1.1/DTD/svg11.dtd">
<svg version="1.1" id="Layer_1" xmlns="http://www.w3.org/2000/svg" xmlns:xlink="http://www.w3.org/1999/xlink" x="0px" y="0px"
	 width="196.526px" height="142.468px" viewBox="0 0 196.526 142.468" enable-background="new 0 0 196.526 142.468"
	 xml:space="preserve">
<path fill="#F0CB1C" d="M15.819,51.641c-3.648,17.939,0.547,35.688,10.217,49.632c7.803-5.223,16.305-9.181,25.178-11.807
	c-7.627-8.522-11.281-20.354-8.819-32.413c4.156-20.212,23.85-33.25,44.084-29.171c12.977,2.639,22.96,11.684,27.418,23.189
	c8.582-3.206,17.597-5.132,26.729-5.692C133.884,23.667,115.757,6.175,91.89,1.307c-4.357-0.886-8.7-1.31-12.979-1.307h-0.043
	C48.872,0.042,22.043,21.105,15.819,51.641z"/>
<path fill="#00994B" d="M146.314,45.207c-1.899-0.001-3.796,0.057-5.688,0.173c-9.132,0.561-18.147,2.486-26.729,5.692
	C96.454,57.589,80.815,69.427,69.67,85.988c2.599-0.22,5.209-0.338,7.824-0.336c8.373-0.005,16.809,1.148,25.049,3.48
	c12.125-10.967,27.803-16.787,43.771-16.803c12.182,0.009,24.427,3.386,35.438,10.527l14.773-22.744
	C181.038,50.045,163.538,45.198,146.314,45.207z"/>
<path fill="#FFFFFF" d="M102.543,89.133c-8.24-2.332-16.676-3.485-25.049-3.48c-2.614-0.002-5.225,0.116-7.824,0.336
	c-6.253,0.529-12.438,1.698-18.456,3.479c-8.873,2.626-17.375,6.584-25.178,11.807C15.945,108.027,7.024,116.884,0,127.7
	l22.746,14.768c12.504-19.249,33.367-29.674,54.748-29.695c12.185,0.009,24.427,3.385,35.439,10.529l14.773-22.744
	C119.746,95.384,111.254,91.599,102.543,89.133z"/>
</svg>
