<?xml version="1.0" encoding="utf-8"?>
<!-- Generator: Adobe Illustrator 16.0.3, SVG Export Plug-In . SVG Version: 6.00 Build 0)  -->
<!DOCTYPE svg PUBLIC "-//W3C//DTD SVG 1.1//EN" "http://www.w3.org/Graphics/SVG/1.1/DTD/svg11.dtd">
<svg version="1.1" id="Layer_1" xmlns="http://www.w3.org/2000/svg" xmlns:xlink="http://www.w3.org/1999/xlink" x="0px" y="0px"
	 width="196.525px" height="142.469px" viewBox="0 0 196.525 142.469" enable-background="new 0 0 196.525 142.469"
	 xml:space="preserve">
<path fill="#F0CB1C" d="M15.819,51.641c-3.647,17.938,0.548,35.688,10.218,49.632c7.803-5.224,16.305-9.182,25.178-11.808
	c-7.627-8.521-11.281-20.354-8.819-32.412c4.156-20.213,23.851-33.25,44.084-29.172c12.978,2.64,22.96,11.685,27.418,23.189
	c8.582-3.206,17.598-5.132,26.729-5.692C133.884,23.667,115.757,6.175,91.89,1.307C87.533,0.421,83.19-0.003,78.911,0h-0.043
	C48.872,0.042,22.043,21.105,15.819,51.641z"/>
<path fill="#00994A" d="M146.314,45.207c-1.898-0.001-3.796,0.058-5.688,0.173c-9.132,0.562-18.147,2.486-26.729,5.692
	C96.454,57.589,80.815,69.427,69.67,85.988c2.599-0.22,5.209-0.338,7.824-0.336c8.373-0.005,16.809,1.147,25.049,3.479
	c12.125-10.967,27.803-16.786,43.771-16.803c12.183,0.009,24.428,3.386,35.438,10.527l14.772-22.744
	C181.038,50.045,163.538,45.198,146.314,45.207z"/>
<path fill="#FFFFFF" d="M102.543,89.133c-8.24-2.331-16.676-3.484-25.049-3.479c-2.614-0.002-5.226,0.116-7.824,0.336
	c-6.253,0.529-12.438,1.698-18.456,3.479c-8.873,2.626-17.375,6.584-25.178,11.807C15.945,108.027,7.024,116.885,0,127.7
	l22.746,14.769c12.504-19.249,33.366-29.675,54.748-29.695c12.185,0.009,24.427,3.385,35.438,10.529l14.773-22.744
	C119.746,95.385,111.254,91.599,102.543,89.133z"/>
</svg>
